<svg width="19" height="19" viewBox="0 0 19 19" fill="none" xmlns="http://www.w3.org/2000/svg">
<path d="M4.53711 14.4629C5.93164 15.8301 7.58594 16.5137 9.5 16.5137C11.4141 16.5137 13.0547 15.8301 14.4219 14.4629C15.8164 13.0684 16.5137 11.4141 16.5137 9.5C16.5137 7.58594 15.8164 5.94531 14.4219 4.57812C13.0547 3.18359 11.4141 2.48633 9.5 2.48633C7.58594 2.48633 5.93164 3.18359 4.53711 4.57812C3.16992 5.94531 2.48633 7.58594 2.48633 9.5C2.48633 11.4141 3.16992 13.0684 4.53711 14.4629ZM3.30664 3.34766C5.0293 1.625 7.09375 0.763672 9.5 0.763672C11.9062 0.763672 13.957 1.625 15.6523 3.34766C17.375 5.04297 18.2363 7.09375 18.2363 9.5C18.2363 11.9062 17.375 13.9707 15.6523 15.6934C13.957 17.3887 11.9062 18.2363 9.5 18.2363C7.09375 18.2363 5.0293 17.3887 3.30664 15.6934C1.61133 13.9707 0.763672 11.9062 0.763672 9.5C0.763672 7.09375 1.61133 5.04297 3.30664 3.34766Z" fill="#49494F"/>
</svg>
