<svg width="15" height="15" viewBox="0 0 15 15" fill="none" xmlns="http://www.w3.org/2000/svg">
<path d="M2.34375 2.24805C3.76953 0.822266 5.48828 0.109375 7.5 0.109375C9.51172 0.109375 11.2207 0.822266 12.627 2.24805C14.0527 3.6543 14.7656 5.36328 14.7656 7.375C14.7656 9.38672 14.0527 11.1055 12.627 12.5312C11.2207 13.9375 9.51172 14.6406 7.5 14.6406C5.48828 14.6406 3.76953 13.9375 2.34375 12.5312C0.9375 11.1055 0.234375 9.38672 0.234375 7.375C0.234375 5.36328 0.9375 3.6543 2.34375 2.24805ZM13.8281 7.375C13.8281 5.61719 13.2031 4.12305 11.9531 2.89258C10.7227 1.66211 9.23828 1.04688 7.5 1.04688C5.74219 1.04688 4.24805 1.67188 3.01758 2.92188C1.78711 4.15234 1.17188 5.63672 1.17188 7.375C1.17188 9.13281 1.78711 10.627 3.01758 11.8574C4.26758 13.0879 5.76172 13.7031 7.5 13.7031C9.25781 13.7031 10.752 13.0879 11.9824 11.8574C13.2129 10.6074 13.8281 9.11328 13.8281 7.375ZM9.46289 9.95312L7.08984 8.22461C6.99219 8.16602 6.94336 8.07812 6.94336 7.96094V3.27344C6.94336 3.03906 7.06055 2.92188 7.29492 2.92188H7.70508C7.93945 2.92188 8.05664 3.03906 8.05664 3.27344V7.55078L10.1367 9.07422C10.3125 9.21094 10.332 9.36719 10.1953 9.54297L9.96094 9.89453C9.82422 10.0703 9.6582 10.0898 9.46289 9.95312Z" fill="#8C8D91"/>
</svg>
