<svg width="21" height="18" viewBox="0 0 21 18" fill="none" xmlns="http://www.w3.org/2000/svg">
<path d="M10.377 5.875H10.5C11.2109 5.875 11.8262 6.13477 12.3457 6.6543C12.8652 7.17383 13.125 7.78906 13.125 8.5V8.66406L10.377 5.875ZM6.60352 6.57227C6.27539 7.22852 6.11133 7.87109 6.11133 8.5C6.11133 9.70312 6.53516 10.7422 7.38281 11.6172C8.25781 12.4648 9.29688 12.8887 10.5 12.8887C11.1289 12.8887 11.7715 12.7246 12.4277 12.3965L11.0742 11.043C10.8555 11.0977 10.6641 11.125 10.5 11.125C9.78906 11.125 9.17383 10.8652 8.6543 10.3457C8.13477 9.82617 7.875 9.21094 7.875 8.5C7.875 8.33594 7.90234 8.14453 7.95703 7.92578L6.60352 6.57227ZM1.76367 1.73242L2.87109 0.625L18.375 16.1289L17.2676 17.2363C17.1309 17.0996 16.6934 16.6758 15.9551 15.9648C15.2441 15.2539 14.6973 14.707 14.3145 14.3242C13.1387 14.8164 11.8672 15.0625 10.5 15.0625C8.33984 15.0625 6.38477 14.4609 4.63477 13.2578C2.88477 12.0547 1.62695 10.4688 0.861328 8.5C1.16211 7.78906 1.62695 7.00977 2.25586 6.16211C2.91211 5.28711 3.54102 4.61719 4.14258 4.15234C3.81445 3.82422 3.34961 3.35938 2.74805 2.75781C2.17383 2.15625 1.8457 1.81445 1.76367 1.73242ZM10.5 4.11133C9.95312 4.11133 9.41992 4.2207 8.90039 4.43945L7.01367 2.55273C8.08008 2.14258 9.24219 1.9375 10.5 1.9375C12.6602 1.9375 14.6016 2.53906 16.3242 3.74219C18.0742 4.94531 19.332 6.53125 20.0977 8.5C19.4414 10.1133 18.4434 11.4941 17.1035 12.6426L14.5605 10.0996C14.7793 9.58008 14.8887 9.04688 14.8887 8.5C14.8887 7.29688 14.4512 6.27148 13.5762 5.42383C12.7285 4.54883 11.7031 4.11133 10.5 4.11133Z" fill="#49494F"/>
</svg>
