<svg width="23" height="22" viewBox="0 0 23 22" fill="none" xmlns="http://www.w3.org/2000/svg">
<path d="M20.0723 0.625C20.9473 0.625 21.5488 1.03516 21.877 1.85547C22.2324 2.64844 22.0957 3.35938 21.4668 3.98828L14.8223 10.6328V19.6973C14.8223 20.4902 14.4531 21.0645 13.7148 21.4199C13.0039 21.7754 12.3203 21.7207 11.6641 21.2559L9.03906 19.3281C8.51953 18.8633 8.25977 18.3164 8.25977 17.6875V10.6328L1.61523 3.98828C0.986328 3.35938 0.835938 2.64844 1.16406 1.85547C1.51953 1.03516 2.13477 0.625 3.00977 0.625H20.0723ZM12.8535 9.8125L20.0723 2.59375H3.00977L10.2285 9.8125V17.6875L12.8535 19.6562V9.8125Z" fill="#8C8D91"/>
</svg>
