<svg width="21" height="20" viewBox="0 0 21 20" fill="none" xmlns="http://www.w3.org/2000/svg">
<path d="M10.5 19.2168L8.98633 17.8496C7.26107 16.2871 6.00781 15.1315 5.22656 14.3828C4.44531 13.6341 3.56641 12.7064 2.58984 11.5996C1.64583 10.4928 0.994792 9.5 0.636719 8.62109C0.278646 7.70964 0.0996094 6.7819 0.0996094 5.83789C0.0996094 4.24284 0.636719 2.89193 1.71094 1.78516C2.81771 0.678385 4.1849 0.125 5.8125 0.125C7.70052 0.125 9.26302 0.857422 10.5 2.32227C11.737 0.857422 13.2995 0.125 15.1875 0.125C16.8151 0.125 18.166 0.678385 19.2402 1.78516C20.347 2.89193 20.9004 4.24284 20.9004 5.83789C20.9004 7.10742 20.4772 8.42578 19.6309 9.79297C18.7845 11.1602 17.8568 12.3483 16.8477 13.3574C15.8711 14.3665 14.2598 15.8802 12.0137 17.8984L10.5 19.2168Z" fill="#D25746"/>
</svg>
