<svg width="18" height="16" viewBox="0 0 18 16" fill="none" xmlns="http://www.w3.org/2000/svg">
<path d="M17.666 14.7324C17.7637 14.8301 17.8125 14.9375 17.8125 15.0547C17.8125 15.1914 17.7637 15.3086 17.666 15.4062L17.3438 15.7285C17.2461 15.8262 17.1289 15.875 16.9922 15.875C16.875 15.875 16.7676 15.8262 16.6699 15.7285L14.2969 13.3555C13.6523 13.7852 12.9492 14 12.1875 14C11.1523 14 10.2637 13.6387 9.52148 12.916C8.79883 12.1738 8.4375 11.2852 8.4375 10.25C8.4375 9.21484 8.79883 8.33594 9.52148 7.61328C10.2637 6.87109 11.1523 6.5 12.1875 6.5C13.2227 6.5 14.1016 6.87109 14.8242 7.61328C15.5664 8.33594 15.9375 9.21484 15.9375 10.25C15.9375 11.0117 15.7227 11.7148 15.293 12.3594L17.666 14.7324ZM10.5176 11.9199C10.9863 12.3691 11.543 12.5938 12.1875 12.5938C12.832 12.5938 13.3789 12.3691 13.8281 11.9199C14.2969 11.4512 14.5312 10.8945 14.5312 10.25C14.5312 9.60547 14.2969 9.05859 13.8281 8.60938C13.3789 8.14062 12.832 7.90625 12.1875 7.90625C11.543 7.90625 10.9863 8.14062 10.5176 8.60938C10.0684 9.05859 9.84375 9.60547 9.84375 10.25C9.84375 10.8945 10.0684 11.4512 10.5176 11.9199ZM2.34375 14.4688H10.166C10.791 14.7617 11.4355 14.918 12.0996 14.9375C12.002 15.2109 11.8262 15.4355 11.5723 15.6113C11.3379 15.7871 11.0742 15.875 10.7812 15.875H2.34375C1.95312 15.875 1.62109 15.7383 1.34766 15.4648C1.07422 15.1914 0.9375 14.8594 0.9375 14.4688V2.28125C0.9375 1.89063 1.07422 1.55859 1.34766 1.28516C1.62109 1.01172 1.95312 0.875 2.34375 0.875H8.32031C8.71094 0.875 9.04297 1.01172 9.31641 1.28516L11.7773 3.74609C12.0508 4.01953 12.1875 4.35156 12.1875 4.74219V5.5625C11.5039 5.5625 10.8301 5.71875 10.166 6.03125H7.73438C7.53906 6.03125 7.37305 5.96289 7.23633 5.82617C7.09961 5.68945 7.03125 5.52344 7.03125 5.32812V2.28125H2.34375V14.4688ZM8.4375 2.39844V4.625H10.6641L8.4375 2.39844Z" fill="#304C70"/>
</svg>
