<svg width="17" height="5" viewBox="0 0 17 5" fill="none" xmlns="http://www.w3.org/2000/svg">
<path d="M7.03516 1.03516C7.45833 0.611979 7.94661 0.400391 8.5 0.400391C9.05339 0.400391 9.54167 0.611979 9.96484 1.03516C10.388 1.45833 10.5996 1.94661 10.5996 2.5C10.5996 3.05339 10.388 3.54167 9.96484 3.96484C9.54167 4.38802 9.05339 4.59961 8.5 4.59961C7.94661 4.59961 7.45833 4.38802 7.03516 3.96484C6.61198 3.54167 6.40039 3.05339 6.40039 2.5C6.40039 1.94661 6.61198 1.45833 7.03516 1.03516ZM13.2852 1.03516C13.7083 0.611979 14.1966 0.400391 14.75 0.400391C15.3034 0.400391 15.7917 0.611979 16.2148 1.03516C16.638 1.45833 16.8496 1.94661 16.8496 2.5C16.8496 3.05339 16.638 3.54167 16.2148 3.96484C15.7917 4.38802 15.3034 4.59961 14.75 4.59961C14.1966 4.59961 13.7083 4.38802 13.2852 3.96484C12.862 3.54167 12.6504 3.05339 12.6504 2.5C12.6504 1.94661 12.862 1.45833 13.2852 1.03516ZM0.785156 1.03516C1.20833 0.611979 1.69661 0.400391 2.25 0.400391C2.80339 0.400391 3.29167 0.611979 3.71484 1.03516C4.13802 1.45833 4.34961 1.94661 4.34961 2.5C4.34961 3.05339 4.13802 3.54167 3.71484 3.96484C3.29167 4.38802 2.80339 4.59961 2.25 4.59961C1.69661 4.59961 1.20833 4.38802 0.785156 3.96484C0.361979 3.54167 0.150391 3.05339 0.150391 2.5C0.150391 1.94661 0.361979 1.45833 0.785156 1.03516Z" fill="#8C8D91"/>
</svg>
