<svg width="137" height="27" viewBox="0 0 137 27" fill="none" xmlns="http://www.w3.org/2000/svg">
<path d="M25.1963 26.217H21.4531L19.2798 16.2497H19.1987L16.5843 26.217H13.0032L16.6654 12.962L13 0H16.7789L19.1987 9.6743H19.2798L21.6931 0H25.2742L21.8164 12.962L25.1963 26.217Z" fill="white"/>
<path d="M9.19266 10.925L9.18942 14.2615H4.08058V26.2177H0V0.000732422H10.6426L11.5443 3.27216H4.08058V10.925H9.19266Z" fill="white"/>
<path d="M34.7619 6.5325L34.7761 4.74175C34.7846 3.70274 34.2118 3.26781 32.967 3.25707L32.3007 3.2517C31.0871 3.24096 30.5029 3.74838 30.4944 4.78739L30.4604 8.93268C30.4547 9.41594 30.537 9.8294 30.7723 9.99854C31.0048 10.1704 31.3905 10.3932 31.9207 10.6617L35.9471 12.4739C36.8318 12.8927 37.4585 13.2176 37.8271 13.4512C38.1957 13.6847 38.4821 13.964 38.6863 14.2915C38.8904 14.619 38.9897 15.2419 38.9812 16.1628L38.9358 21.7095C38.9103 24.6359 37.1806 26.083 33.7468 26.0535L31.1239 26.032C27.7185 26.0025 26.0285 24.3943 26.054 21.2021L26.0597 19.4785L30.3441 19.5161L30.3527 21.2988C30.3441 22.3163 30.9509 22.7834 32.2269 22.7942L32.9698 22.7995C34.0955 22.8103 34.6258 22.3995 34.6343 21.3847L34.6712 16.9494C34.6768 16.4662 34.6003 16.152 34.3621 15.9802C34.1267 15.8084 33.7439 15.5882 33.2109 15.3171L29.1844 13.4351C28.2969 13.0404 27.6561 12.7075 27.2591 12.439C26.8621 12.1678 26.5757 11.8215 26.4028 11.3973C26.2298 10.9758 26.1447 10.4227 26.1504 9.74617L26.1958 4.41689C26.2213 1.44216 27.9368 -0.0290967 31.3423 0.000435853L34.0076 0.0245987C37.4159 0.0541312 39.1059 1.55492 39.0804 4.52965L39.0634 6.57813L34.7619 6.5325Z" fill="#E38506"/>
<path d="M65.9139 17.5748C66.1961 15.8919 67.2568 14.1829 69.5371 12.7116L70.8735 14.5279L72.0315 7.66284C66.3193 9.01047 64.0487 12.2559 63.7665 15.5891C63.3838 20.2082 64.8435 22.9393 67.007 24.3357C67.1724 24.4431 67.3606 24.2315 67.2341 24.0786C66.0534 22.6235 65.4468 20.3189 65.9139 17.5748Z" fill="#99B2D3"/>
<path fill-rule="evenodd" clip-rule="evenodd" d="M55.2912 15.6802C55.2912 18.7498 52.9882 20.9861 49.8872 20.9861H47.7042V25.029H43.6787V10.3906H49.8904C52.9881 10.3906 55.2912 12.6106 55.2912 15.6802ZM51.1619 15.69C51.1619 14.6484 50.4645 13.9127 49.4071 13.9127H47.7074V17.4641H49.4071C50.4645 17.4673 51.1619 16.7317 51.1619 15.69Z" fill="#E0E8F2"/>
<path d="M97.8874 17.9491V25.0323H94.0112V18.4308C94.0112 17.2525 93.5798 16.6828 92.7559 16.6828C91.6919 16.6828 91.1437 17.4185 91.1437 18.841V25.0323H87.3681V18.4308C87.3681 17.2883 86.9399 16.6828 86.1257 16.6828C85.0748 16.6828 84.5006 17.438 84.5006 18.841V25.0323H80.6244V13.7369H83.3491L83.9006 14.9511C84.7147 14.0006 85.8922 13.4049 87.1897 13.4049C88.5618 13.4049 89.7165 14.0234 90.4172 15.0683C91.2248 14.0462 92.4704 13.4049 93.8717 13.4049C96.285 13.4049 97.8874 15.2896 97.8874 17.9491Z" fill="#E0E8F2"/>
<path d="M104.07 13.7369H100.194V25.029H104.07V13.7369Z" fill="#E0E8F2"/>
<path d="M106.36 20.1821V13.7369H110.236V20.0128C110.236 21.2042 110.875 21.9073 111.91 21.9073C112.945 21.9073 113.571 21.1945 113.571 20.0128V13.7369H117.447V20.1821C117.447 23.3429 115.235 25.4001 111.91 25.4001C108.585 25.4001 106.36 23.3429 106.36 20.1821Z" fill="#E0E8F2"/>
<path d="M137 25.0323V17.9491C137 15.2896 135.398 13.4049 132.984 13.4049C131.583 13.4049 130.337 14.0462 129.53 15.0683C128.829 14.0234 127.674 13.4049 126.302 13.4049C125.005 13.4049 123.827 14.0006 123.013 14.9511L122.462 13.7369H119.737V25.0323H123.613V18.841C123.613 17.438 124.187 16.6828 125.238 16.6828C126.053 16.6828 126.481 17.2883 126.481 18.4308V25.0323H130.256V18.841C130.256 17.4185 130.805 16.6828 131.868 16.6828C132.692 16.6828 133.124 17.2525 133.124 18.4308V25.0323H137Z" fill="#E0E8F2"/>
<path d="M62.7742 15.5077C62.8196 14.9739 62.9202 14.3521 63.1148 13.6913C61.8368 13.7141 60.8993 14.0982 60.1273 14.9934L59.524 13.7402H56.9258V25.0323H60.802V19.2902C60.802 17.8612 61.3664 17.2557 62.7158 17.246C62.7093 16.6958 62.7223 16.1229 62.7742 15.5077Z" fill="#E0E8F2"/>
<path fill-rule="evenodd" clip-rule="evenodd" d="M76.1319 21.1163L76.3265 20.882L79.3594 21.9724L79.0188 22.4412C78.4609 23.2127 78.0619 23.7172 77.8024 23.9776C76.5406 25.2439 74.9933 25.8884 73.2061 25.8884C71.4253 25.8884 69.8845 25.2471 68.6195 23.9776C67.7242 23.0792 67.1468 22.0343 66.8841 20.8657C66.7154 19.9608 66.7122 18.9614 66.8711 17.9133C67.1306 16.7219 67.7112 15.6607 68.6195 14.7493C68.8498 14.5214 69.0898 14.3131 69.3363 14.1243L70.0694 15.1204C70.2575 15.3808 70.5592 15.5273 70.8706 15.5273C70.9452 15.5273 71.0231 15.5207 71.1009 15.5012C71.4901 15.4068 71.7853 15.0911 71.8534 14.6939L72.1519 12.9231C72.4957 12.8711 72.8428 12.8385 73.2061 12.8385C74.7338 12.8385 76.0962 13.3105 77.2477 14.2382C77.4423 14.401 77.6272 14.5702 77.8056 14.7493C77.8575 14.8014 77.9776 14.9283 78.4317 15.4426L78.7009 15.7486L77.3061 17.1613L71.9118 22.5779C72.1908 22.6658 72.5995 22.7341 73.2093 22.7341C74.15 22.7341 74.9285 22.4119 75.5967 21.7478C75.668 21.6697 75.8529 21.4516 76.1319 21.1163ZM70.8382 16.9758C70.1732 17.6398 69.8521 18.4211 69.8521 19.3651C69.8521 19.7459 69.8715 20.0259 69.9007 20.2309L74.0754 16.0318C73.8678 16.0058 73.5888 15.9862 73.2093 15.9862C72.2751 15.9862 71.4999 16.3117 70.8382 16.9758Z" fill="#E0E8F2"/>
</svg>
