<svg width="163" height="54" viewBox="0 0 163 54" fill="none" xmlns="http://www.w3.org/2000/svg">
<path d="M138.376 4.35881V34.519H132.958V4.35881H127.553V0.0556641H143.778V4.35881H138.376Z" fill="#F0871B"/>
<path d="M108.851 34.5148V0.0556641H125.076V4.35881H114.253V14.4136H121.017V18.7295H114.261L114.253 30.2329L125.076 30.2286V34.5148H108.851Z" fill="#F0871B"/>
<path d="M89.9551 34.5148V0.0556641H106.18V4.35881H95.3564V14.4136H102.121V18.7295H95.3606L95.3564 30.2329L106.18 30.2286V34.5148H89.9551Z" fill="#F0871B"/>
<path d="M63.1436 4.35456V34.5148H57.7254V4.35456H52.3198V0.0556641H68.5449V4.35456H63.1436Z" fill="#F0871B"/>
<path d="M32.5645 34.2132H27.6796L24.8435 21.2061H24.7377L21.3259 34.2132H16.6527L21.4317 16.9157L16.6484 0.000488281H21.5799L24.7377 12.6253H24.8435L27.9928 0.000488281H32.6661L28.1537 16.9157L32.5645 34.2132Z" fill="white"/>
<path d="M11.9963 14.2568L11.992 18.6109H5.3251V34.2135H0V0.000732422H13.8884L15.0652 4.26989H5.3251V14.2568H11.9963Z" fill="white"/>
<path d="M39.9468 32.4504H41.2167H49.3228C49.3821 32.4504 49.4414 32.4589 49.5048 32.4589C50.1906 31.5371 50.5419 30.3137 50.5546 28.7717L50.6139 21.4228C50.6224 20.2037 50.4996 19.3796 50.2456 18.942C49.9874 18.5045 49.6318 18.1349 49.1704 17.8291C48.709 17.519 47.9259 17.0899 46.8211 16.5334L41.7881 14.1334C41.1235 13.7766 40.6452 13.4834 40.3531 13.2541C40.0568 13.0289 39.9552 12.4809 39.9637 11.8395L40.006 6.35119C40.0187 4.97486 40.7468 4.30369 42.2622 4.31644L43.0961 4.32493C44.6496 4.33768 45.3692 4.91539 45.3565 6.29172L45.3396 8.66206L50.7197 8.71303L50.7409 5.99861C50.7747 2.06079 48.6582 0.0685181 44.3999 0.0302868L41.06 0.000551409C36.8016 -0.0376799 34.6598 1.91211 34.6259 5.85418L34.5709 12.9142C34.5624 13.8105 34.6682 14.5412 34.8883 15.1019C35.1042 15.6669 35.464 16.1256 35.9593 16.4825C36.4545 16.8393 37.2588 17.2768 38.3636 17.8036L43.3966 20.2971C44.0612 20.6582 44.5396 20.9513 44.8359 21.1764C45.1322 21.4016 45.2253 21.8179 45.2211 22.4593L45.1745 28.3342C45.1618 29.6808 44.5015 30.2245 43.0919 30.2117L42.1648 30.2033C40.5732 30.1905 39.8113 29.5703 39.824 28.2237L39.8113 25.8619L34.4566 25.8152L34.4481 28.1005C34.4185 32.0384 36.2514 34.1581 39.9425 34.4597V33.7248V32.4504H39.9468Z" fill="#F0871B"/>
<path d="M70.2339 43.0956C70.6021 40.8994 71.9863 38.6692 74.9621 36.7492L76.7061 39.1195L78.2173 30.1606C70.763 31.9193 67.7999 36.1545 67.4316 40.5043C66.9321 46.5321 68.837 50.0961 71.6604 51.9185C71.8763 52.0587 72.1218 51.7826 71.9567 51.5829C70.4159 49.6841 69.6243 46.6766 70.2339 43.0956Z" fill="#99B2D3"/>
<path d="M79.212 20.5986L82.6365 34.519H87.5891L83.9445 20.1653C86.0102 19.3667 87.0473 17.4636 87.0473 14.4561V5.96027C87.0473 2.02245 85.0493 0.0556641 81.0619 0.0556641H70.835V32.0467C72.2107 31.006 73.9758 30.08 76.249 29.3748V20.5986H79.212ZM76.249 4.35456H79.5083C81.0661 4.35456 81.6714 5.00024 81.6714 6.66118L81.6756 14.197C81.6756 15.8579 81.0492 16.6565 79.4872 16.6565H76.249V4.35456Z" fill="#F0871B"/>
<path fill-rule="evenodd" clip-rule="evenodd" d="M56.3714 40.6233C56.3714 44.6291 53.366 47.5474 49.3192 47.5474H46.4704V52.8233H41.2173V33.7205H49.3235C53.366 33.7205 56.3714 36.6175 56.3714 40.6233ZM50.9828 40.6361C50.9828 39.2767 50.0727 38.3167 48.6927 38.3167H46.4747V42.9512H48.6927C50.0727 42.9554 50.9828 41.9954 50.9828 40.6361Z" fill="#E0E8F2"/>
<path d="M111.959 43.5841V52.8276H106.9V44.2128C106.9 42.6751 106.337 41.9317 105.262 41.9317C103.874 41.9317 103.158 42.8917 103.158 44.7481V52.8276H98.2312V44.2128C98.2312 42.7218 97.6725 41.9317 96.61 41.9317C95.2385 41.9317 94.4893 42.9172 94.4893 44.7481V52.8276H89.4309V38.0873H92.9866L93.7062 39.6718C94.7687 38.4314 96.3052 37.654 97.9984 37.654C99.789 37.654 101.296 38.4611 102.21 39.8247C103.264 38.4909 104.89 37.654 106.718 37.654C109.868 37.654 111.959 40.1136 111.959 43.5841Z" fill="#E0E8F2"/>
<path d="M120.027 38.0873H114.968V52.8234H120.027V38.0873Z" fill="#E0E8F2"/>
<path d="M123.015 46.4982V38.0873H128.074V46.2773C128.074 47.8321 128.908 48.7496 130.258 48.7496C131.608 48.7496 132.425 47.8193 132.425 46.2773V38.0873H137.484V46.4982C137.484 50.6229 134.597 53.3076 130.258 53.3076C125.919 53.3076 123.015 50.6229 123.015 46.4982Z" fill="#E0E8F2"/>
<path d="M163 52.8276V43.5841C163 40.1136 160.909 37.654 157.76 37.654C155.931 37.654 154.306 38.4909 153.252 39.8247C152.337 38.4611 150.83 37.654 149.04 37.654C147.347 37.654 145.81 38.4314 144.748 39.6718L144.028 38.0873H140.472V52.8276H145.531V44.7481C145.531 42.9172 146.28 41.9317 147.651 41.9317C148.714 41.9317 149.273 42.7218 149.273 44.2128V52.8276H154.2V44.7481C154.2 42.8917 154.915 41.9317 156.304 41.9317C157.379 41.9317 157.942 42.6751 157.942 44.2128V52.8276H163Z" fill="#E0E8F2"/>
<path d="M66.1366 40.3982C66.1959 39.7015 66.3271 38.8902 66.5811 38.0279C64.9133 38.0576 63.6899 38.5588 62.6825 39.727L61.8952 38.0916H58.5045V52.8276H63.563V45.3343C63.563 43.4694 64.2995 42.6793 66.0604 42.6666C66.0519 41.9487 66.0689 41.201 66.1366 40.3982Z" fill="#E0E8F2"/>
<path fill-rule="evenodd" clip-rule="evenodd" d="M83.5682 47.7174L83.8222 47.4115L87.78 48.8346L87.3356 49.4463C86.6075 50.453 86.0868 51.1114 85.7482 51.4513C84.1016 53.1037 82.0824 53.9448 79.75 53.9448C77.4261 53.9448 75.4155 53.108 73.7646 51.4513C72.5963 50.2788 71.8428 48.9153 71.4999 47.3903C71.2798 46.2093 71.2756 44.9052 71.483 43.5374C71.8217 41.9827 72.5794 40.5978 73.7646 39.4084C74.0651 39.1111 74.3784 38.8392 74.7001 38.5928L75.6567 39.8927C75.9023 40.2325 76.2959 40.4237 76.7023 40.4237C76.7996 40.4237 76.9012 40.4152 77.0028 40.3897C77.5108 40.2665 77.896 39.8545 77.9849 39.3362L78.3743 37.0253C78.823 36.9574 79.2759 36.9149 79.75 36.9149C81.7438 36.9149 83.5216 37.5308 85.0243 38.7415C85.2783 38.9539 85.5196 39.1748 85.7524 39.4084C85.8201 39.4764 85.9768 39.6421 86.5694 40.3132L86.9207 40.7125L85.1005 42.5561L78.0611 49.6247C78.4251 49.7394 78.9585 49.8286 79.7543 49.8286C80.9818 49.8286 81.9978 49.408 82.8698 48.5414C82.9629 48.4395 83.2042 48.1549 83.5682 47.7174ZM76.66 42.314C75.7922 43.1806 75.3731 44.2001 75.3731 45.432C75.3731 45.929 75.3985 46.2943 75.4366 46.5619L80.8845 41.0821C80.6136 41.0481 80.2495 41.0226 79.7543 41.0226C78.5352 41.0226 77.5235 41.4474 76.66 42.314Z" fill="#E0E8F2"/>
</svg>
